<?xml version="1.0" standalone="no"?>
<!DOCTYPE svg PUBLIC "-//W3C//DTD SVG 20010904//EN"
 "http://www.w3.org/TR/2001/REC-SVG-20010904/DTD/svg10.dtd">
<svg version="1.0" xmlns="http://www.w3.org/2000/svg"
 width="500.000000pt" height="500.000000pt" viewBox="0 0 500.000000 500.000000"
 preserveAspectRatio="xMidYMid meet">

<g transform="translate(0.000000,500.000000) scale(0.100000,-0.100000)"
fill="#000000" stroke="none">
<path d="M1619 4024 c-9 -3 -22 -17 -29 -32 -11 -24 -1232 -2810 -1266 -2889
l-14 -33 160 0 161 0 30 68 c17 37 64 146 106 242 41 96 139 324 218 505 79
182 252 582 385 890 356 824 368 849 377 852 5 2 254 -567 553 -1264 299 -698
548 -1274 554 -1282 16 -21 616 -10 746 14 509 93 920 422 1100 882 129 329
142 729 34 1060 -119 365 -380 666 -719 829 -202 96 -373 140 -609 154 -180
11 -1166 13 -1166 3 0 -15 124 -288 135 -295 5 -4 245 -8 532 -8 316 0 552 -4
599 -11 314 -44 600 -219 771 -474 239 -354 268 -863 73 -1250 -156 -311 -403
-500 -760 -581 -132 -30 -493 -46 -521 -23 -9 8 -140 298 -292 644 -717 1640
-867 1979 -877 1989 -11 11 -248 19 -281 10z"/>
<path d="M2460 3517 c0 -10 123 -283 131 -292 6 -6 223 -12 587 -16 548 -5
581 -7 657 -27 95 -25 165 -52 246 -92 32 -17 59 -26 59 -21 0 5 -27 46 -60
90 -129 171 -318 286 -553 338 -58 13 -166 17 -569 20 -274 3 -498 3 -498 0z"/>
<path d="M1330 2094 c-12 -27 -50 -114 -85 -194 -34 -80 -128 -295 -209 -478
-80 -184 -146 -338 -146 -343 0 -15 306 -11 317 4 6 6 76 168 157 359 l147
347 -66 152 c-36 84 -72 163 -79 177 l-13 26 -23 -50z"/>
</g>
</svg>
